<svg width="18" height="10" viewBox="0 0 18 10" fill="none" xmlns="http://www.w3.org/2000/svg">
<path fill-rule="evenodd" clip-rule="evenodd" d="M9.52985 9.05835C9.38922 9.1988 9.1986 9.27769 8.99985 9.27769C8.8011 9.27769 8.61047 9.1988 8.46985 9.05835L0.969847 1.55835C0.837366 1.41618 0.765243 1.22813 0.768672 1.03383C0.7721 0.839528 0.850812 0.654143 0.988225 0.51673C1.12564 0.379317 1.31102 0.300605 1.50532 0.297177C1.69963 0.293749 1.88767 0.365871 2.02985 0.498351L8.99985 7.46835L15.9698 0.498351C16.0385 0.424665 16.1213 0.365563 16.2133 0.324571C16.3053 0.283579 16.4046 0.261537 16.5053 0.25976C16.606 0.257983 16.7061 0.276508 16.7994 0.314229C16.8928 0.35195 16.9777 0.408095 17.0489 0.479313C17.1201 0.550532 17.1762 0.635366 17.214 0.728754C17.2517 0.822142 17.2702 0.922171 17.2684 1.02287C17.2667 1.12358 17.2446 1.22289 17.2036 1.31489C17.1626 1.40689 17.1035 1.48969 17.0298 1.55835L9.52985 9.05835V9.05835Z" fill="white"/>
</svg>
