<svg width="211" height="47" viewBox="0 0 211 47" fill="none" xmlns="http://www.w3.org/2000/svg">
<g clip-path="url(#clip0_1458_3795)">
<path d="M163.169 24.4537H115.872L113.744 36.3091H161.041L209.6 32.2593L211 24.4537H163.169Z" fill="#3CE5B5"/>
<path d="M54.2363 22.3028H46.3572L47.6645 14.9703H51.3052L50.5412 19.279H54.7637C57.0011 19.279 58.7719 17.9749 58.7719 16.0826C58.7719 14.641 57.5413 13.5862 55.7641 13.5862H47.8882L50.765 10.5241H56.3235C60.0345 10.5241 62.4798 12.5634 62.4798 15.52C62.467 19.3141 58.7368 22.3028 54.2363 22.3028Z" fill="#FBFBFB" fill-opacity="0.88"/>
<path d="M81.1566 15.3213C81.1566 20.1575 77.9602 22.494 71.3628 22.494C66.2806 22.494 63.7107 20.8959 63.7107 17.5013C63.7107 12.6652 66.9071 10.3446 73.5076 10.3446C78.5899 10.3446 81.1566 11.9108 81.1566 15.3213ZM77.4999 15.6889C77.4999 13.7903 76.1638 13.4035 72.961 13.4035C68.2304 13.4035 67.3706 14.1259 67.3706 17.1497C67.3706 19.0483 68.7226 19.4351 71.8902 19.4351C76.6209 19.4351 77.4999 18.6967 77.4999 15.6889Z" fill="#FBFBFB" fill-opacity="0.88"/>
<path d="M93.7121 17.9232C93.226 16.7674 92.7992 15.5874 92.4335 14.388C91.9061 15.2318 91.2892 16.0949 89.934 17.904L87.4568 21.2475C87.2192 21.6227 86.8921 21.933 86.5049 22.1506C86.1177 22.3682 85.6825 22.4862 85.2385 22.494C85.0159 22.5074 84.7929 22.4758 84.5828 22.401C84.3727 22.3263 84.1799 22.2099 84.0158 22.059C83.8516 21.908 83.7197 21.7255 83.6277 21.5223C83.5357 21.3192 83.4856 21.0996 83.4805 20.8767L82.3394 10.5364H85.9609L86.3476 14.6341C86.4531 15.9542 86.5426 16.9195 86.5778 17.8689C87.1052 17.0602 87.6837 16.146 88.7929 14.6181L90.9025 11.6615C91.7303 10.5204 92.3281 10.3446 93.2071 10.3446C94.0861 10.3446 94.6646 10.5012 95.0706 11.6615L96.1254 14.6341C96.6879 16.2515 96.9692 17.0794 97.2153 17.8689C97.551 16.9387 97.9729 15.951 98.5706 14.6341L100.415 10.5364H103.985L99.1268 20.8767C98.6154 21.9666 97.7364 22.494 96.8062 22.494C96.4133 22.5146 96.0248 22.403 95.7027 22.1771C95.3806 21.9512 95.1434 21.6239 95.029 21.2475L93.7121 17.9232Z" fill="#FBFBFB" fill-opacity="0.88"/>
<path d="M113.386 21.8607L107.312 15.3912L106.101 22.3018H102.799L104.506 12.5496C104.771 10.9866 105.807 10.3537 106.897 10.3537C107.157 10.3477 107.415 10.4024 107.65 10.5133C107.885 10.6243 108.091 10.7885 108.252 10.993L114.325 17.4625L115.556 10.5519H118.864L117.122 20.2945C116.841 21.8607 115.802 22.5096 114.747 22.5096C114.485 22.5186 114.224 22.4643 113.987 22.3514C113.75 22.2384 113.544 22.0702 113.386 21.8607Z" fill="#FBFBFB" fill-opacity="0.88"/>
<path d="M131.09 15.2319C133.647 15.2319 134.993 16.146 134.993 17.9041C134.993 20.4612 133.395 22.3023 129.208 22.3023H118.238L121.114 19.2785H130.029C131.014 19.2785 131.439 18.9589 131.439 18.2748C131.439 17.7986 131.068 17.5716 130.329 17.5716H123.902C121.229 17.5716 120.031 16.4465 120.031 14.7396C120.031 12.3487 121.667 10.5364 125.784 10.5364H136.013L133.136 13.5985H124.956C123.972 13.5985 123.55 13.8606 123.55 14.5574C123.55 15.0337 123.918 15.2255 124.675 15.2255L131.09 15.2319Z" fill="#FBFBFB" fill-opacity="0.88"/>
<path d="M148.431 17.9232C147.711 16.1109 147.411 15.2318 147.152 14.388C146.625 15.2318 146.008 16.0949 144.656 17.904L142.175 21.2475C141.938 21.6224 141.612 21.9326 141.225 22.1502C140.838 22.3678 140.404 22.4859 139.96 22.494C139.738 22.5074 139.515 22.4758 139.305 22.401C139.094 22.3263 138.902 22.2099 138.737 22.059C138.573 21.908 138.441 21.7255 138.349 21.5223C138.257 21.3192 138.207 21.0996 138.202 20.8767L137.058 10.5364H140.679L141.066 14.6341C141.172 15.9542 141.261 16.9195 141.296 17.8689C141.824 17.0602 142.405 16.146 143.511 14.6181L145.621 11.6615C146.449 10.5204 147.047 10.3446 147.926 10.3446C148.805 10.3446 149.386 10.5012 149.789 11.6615L150.844 14.6341C151.406 16.2515 151.688 17.0794 151.934 17.8689C152.253 16.9387 152.691 15.951 153.289 14.6341L155.137 10.5364H158.707L153.817 20.8767C153.308 21.9666 152.426 22.494 151.496 22.494C151.103 22.5146 150.715 22.403 150.392 22.1771C150.07 21.9512 149.833 21.6239 149.719 21.2475L148.431 17.9232Z" fill="#FBFBFB" fill-opacity="0.88"/>
<path d="M161.705 22.3023H158.064L160.158 10.5364H163.78L161.705 22.3023Z" fill="#FBFBFB" fill-opacity="0.88"/>
<path d="M174.507 21.8607L168.434 15.3912L167.219 22.3018H163.921L165.628 12.5496C165.89 10.9866 166.928 10.3537 168.018 10.3537C168.278 10.3479 168.536 10.4027 168.771 10.5136C169.007 10.6246 169.213 10.7887 169.374 10.993L175.447 17.4624L176.677 10.5519H179.983L178.24 20.2944C177.959 21.8607 176.924 22.5095 175.869 22.5095C175.606 22.5188 175.346 22.4647 175.109 22.3517C174.871 22.2387 174.665 22.0703 174.507 21.8607Z" fill="#FBFBFB" fill-opacity="0.88"/>
<path d="M188.625 14.9506H196.15L194.849 22.3023H186.762C183.086 22.3023 180.641 20.0872 180.641 17.1145C180.641 13.2437 184.336 10.5364 188.836 10.5364H197.256L194.353 13.5985H188.306C186.142 13.5985 184.294 14.9857 184.294 16.8684C184.294 18.326 185.49 19.2785 187.302 19.2785H191.777L192.074 17.5716H185.953L188.625 14.9506Z" fill="#FBFBFB" fill-opacity="0.88"/>
<path d="M51.6569 36.2353H43.7778L45.0788 28.9028H48.7194L47.9651 33.2116H52.1843C54.4218 33.2116 56.1926 31.9106 56.1926 30.0152C56.1926 28.5736 54.962 27.5188 53.188 27.5188H45.3089L48.1857 24.4598H53.7378C57.4488 24.4598 59.894 26.4991 59.894 29.4526C59.8876 33.2467 56.1574 36.2353 51.6569 36.2353Z" fill="#FBFBFB" fill-opacity="0.88"/>
<path d="M78.577 29.2541C78.577 34.0902 75.3806 36.4299 68.7832 36.4299C63.701 36.4299 61.1343 34.8318 61.1343 31.4372C61.1343 26.6011 64.3307 24.2773 70.928 24.2773C76.0103 24.2773 78.577 25.8435 78.577 29.2541ZM74.9203 29.6248C74.9203 27.7262 73.5842 27.3394 70.3846 27.3394C65.654 27.3394 64.7909 28.0586 64.7909 31.0824C64.7909 33.0002 66.1462 33.371 69.3106 33.371C74.0413 33.371 74.9203 32.6326 74.9203 29.6248Z" fill="#FBFBFB" fill-opacity="0.88"/>
<path d="M87.8275 28.8866H95.3518L94.0508 36.2383H85.98C82.3041 36.2383 79.8589 34.0232 79.8589 31.0506C79.8589 27.1829 83.5539 24.4756 88.0544 24.4756H96.4769L93.5778 27.5345H87.5047C85.3407 27.5345 83.4932 28.925 83.4932 30.8044C83.4932 32.2652 84.6886 33.2145 86.501 33.2145H90.9759L91.2764 31.5076H85.1713L87.8275 28.8866Z" fill="#FBFBFB" fill-opacity="0.88"/>
<path d="M108.294 29.1711C110.851 29.1711 112.197 30.0852 112.197 31.8433C112.197 34.4004 110.598 36.2383 106.411 36.2383H95.457L98.3338 33.2145H107.249C108.233 33.2145 108.655 32.8949 108.655 32.214C108.655 31.7378 108.284 31.5076 107.546 31.5076H101.118C98.4457 31.5076 97.2502 30.3825 97.2502 28.6788C97.2502 26.2879 98.8868 24.4756 103.004 24.4756H113.232L110.355 27.5345H102.173C101.188 27.5345 100.766 27.7998 100.766 28.4934C100.766 28.9665 101.137 29.1615 101.891 29.1615L108.294 29.1711Z" fill="#FBFBFB" fill-opacity="0.88"/>
<path d="M130.064 29.1488L129.987 29.5483H128.319L128.399 29.1488C128.417 29.0696 128.411 28.9869 128.383 28.9109C128.354 28.8349 128.304 28.7687 128.239 28.7205C128.082 28.5966 127.886 28.5341 127.686 28.5447H124.908C124.689 28.5419 124.474 28.603 124.288 28.7205C124.208 28.7656 124.138 28.827 124.083 28.9007C124.028 28.9745 123.989 29.059 123.969 29.1488L123.492 31.5621C123.475 31.6408 123.481 31.7228 123.51 31.7982C123.538 31.8736 123.588 31.9392 123.652 31.9872C123.809 32.1103 124.006 32.1727 124.205 32.163H126.983C127.203 32.1662 127.42 32.1051 127.606 31.9872C127.686 31.9417 127.755 31.8805 127.81 31.8075C127.865 31.7344 127.904 31.6509 127.926 31.5621L128.003 31.1593H129.668L129.591 31.5621C129.525 31.8318 129.403 32.0847 129.233 32.3048C129.064 32.5249 128.85 32.7074 128.607 32.8406C128.047 33.1933 127.398 33.3775 126.737 33.3712H123.959C123.36 33.3998 122.771 33.2114 122.3 32.8406C122.105 32.6968 121.955 32.4996 121.87 32.2727C121.784 32.0458 121.766 31.799 121.818 31.5621L122.294 29.1488C122.359 28.8784 122.48 28.6247 122.65 28.4044C122.819 28.1841 123.033 28.002 123.278 27.8702C123.837 27.5161 124.487 27.3318 125.148 27.3396H127.923C128.523 27.3094 129.113 27.4979 129.585 27.8702C129.779 28.0147 129.928 28.2121 130.013 28.4389C130.098 28.6657 130.116 28.9121 130.064 29.1488Z" fill="#0A0F1D"/>
<path d="M132.248 32.1628H137.803L137.563 33.371H130.343L131.532 27.3394H133.2L132.248 32.1628Z" fill="#0A0F1D"/>
<path d="M139.027 31.5618L139.858 27.3394H141.526L140.679 31.5618C140.663 31.6409 140.67 31.7229 140.699 31.7983C140.728 31.8736 140.777 31.9391 140.842 31.987C140.999 32.1109 141.196 32.1734 141.395 32.1628H143.614C143.834 32.166 144.051 32.1049 144.237 31.987C144.318 31.9432 144.388 31.8826 144.443 31.8092C144.498 31.7359 144.537 31.6515 144.557 31.5618L145.391 27.3394H147.072L146.238 31.5618C146.172 31.8319 146.051 32.0851 145.881 32.3053C145.711 32.5255 145.498 32.7078 145.253 32.8404C144.694 33.193 144.045 33.3772 143.384 33.371H141.146C140.547 33.399 139.959 33.2107 139.487 32.8404C139.298 32.6921 139.155 32.4935 139.073 32.2673C138.992 32.0412 138.976 31.7967 139.027 31.5618Z" fill="#0A0F1D"/>
<path d="M146.999 33.3712L147.711 29.7497H152.429C152.655 29.7561 152.878 29.6948 153.068 29.5739C153.149 29.5301 153.219 29.4695 153.275 29.3962C153.33 29.3228 153.368 29.2384 153.388 29.1488C153.405 29.0696 153.399 28.9872 153.371 28.9113C153.342 28.8354 153.293 28.7692 153.228 28.7205C153.071 28.5968 152.875 28.5343 152.675 28.5447H148.52L148.2 27.3396H152.918C153.518 27.3094 154.109 27.4979 154.58 27.8702C154.775 28.0147 154.923 28.2121 155.008 28.4389C155.093 28.6657 155.111 28.9121 155.06 29.1488C155.002 29.3979 154.894 29.6329 154.744 29.8398C154.593 30.0468 154.403 30.2215 154.184 30.3538C154.353 30.5008 154.48 30.6905 154.55 30.903C154.621 31.1155 154.634 31.3431 154.587 31.5621C154.52 31.8322 154.398 32.0855 154.228 32.3056C154.058 32.5258 153.844 32.708 153.599 32.8406C153.04 33.1941 152.391 33.3784 151.729 33.3712H146.999ZM148.916 32.163H151.972C152.198 32.1689 152.42 32.1078 152.611 31.9872C152.691 31.9424 152.761 31.8815 152.816 31.8083C152.871 31.7351 152.91 31.6513 152.931 31.5621C152.949 31.4829 152.943 31.4002 152.915 31.3242C152.886 31.2481 152.836 31.182 152.771 31.1337C152.614 31.0098 152.418 30.9473 152.218 30.9579H149.166L148.916 32.163Z" fill="#0A0F1D"/>
<path d="M201.382 10.5873H198.819L196.895 22.3436H199.458L203.604 16.4654L201.382 10.5873Z" fill="#3CE5B5"/>
<path d="M208.778 10.5873H206.215L204.291 22.3436H206.854L211 16.4654L208.778 10.5873Z" fill="#3CE5B5"/>
<path d="M31.3853 44.5714L30.3945 42.6856C30.647 42.5641 30.9027 42.4426 31.152 42.3084C33.5872 41.0267 35.7461 39.2778 37.5054 37.1617C39.2647 35.0455 40.5898 32.6036 41.4052 29.9752C42.2206 27.3468 42.5102 24.5836 42.2575 21.8433C42.0048 19.103 41.2147 16.4393 39.9325 14.0044C39.8014 13.7519 39.6608 13.5089 39.5201 13.266L41.406 12.2719C39.3268 8.64355 36.2963 5.65176 32.6415 3.61931C32.3219 4.25859 32.0022 4.88828 31.6826 5.50837C28.1987 3.5517 24.2294 2.62812 20.2395 2.84578C20.2395 2.13618 20.2321 1.42765 20.2172 0.720184C15.8191 0.940386 11.5766 2.41774 7.99305 4.97693C4.40951 7.53611 1.63542 11.0697 0 15.1583L2.02651 15.7975C0.855049 18.6351 0.322508 21.6956 0.466687 24.7621C0.610866 27.8285 1.42823 30.8256 2.86077 33.5407C3.03337 33.8603 3.21237 34.18 3.39776 34.4996L1.5087 35.4937C2.66358 37.455 4.10387 39.2336 5.78227 40.7709C6.27451 40.2638 6.76143 39.7502 7.24302 39.2303C11.0806 42.7404 16.0841 44.7018 21.2847 44.7345C21.1441 45.4334 21.0003 46.1313 20.8532 46.8281C24.4937 46.9266 28.1048 46.1528 31.3853 44.5714ZM3.9795 32.9334C2.16631 29.4898 1.41497 25.5859 1.82051 21.7153C2.22604 17.8448 3.77024 14.1814 6.25782 11.1884C8.74539 8.19547 12.0646 6.00739 15.7958 4.90088C19.5269 3.79437 23.5024 3.81913 27.2195 4.97202C30.9365 6.12492 34.2282 8.35417 36.6784 11.3779C39.1285 14.4016 40.6269 18.0839 40.9842 21.9592C41.3415 25.8346 40.5416 29.7288 38.6857 33.1495C36.8297 36.5702 34.0011 39.3638 30.5575 41.1769C25.9385 43.6011 20.5467 44.0947 15.5644 42.5494C10.582 41.0041 6.41588 37.5459 3.9795 32.9334Z" fill="#3CE5B5"/>
<path d="M22.7327 20.8607L22.851 20.9118C22.9595 20.9704 23.0757 21.0134 23.1962 21.0397C23.3848 21.0824 23.5789 21.0953 23.7715 21.078C24.0229 21.0622 24.27 21.0061 24.5035 20.9118C25.5519 20.5347 26.6898 19.4767 27.3227 18.1406C27.4822 17.8039 27.5899 17.445 27.6424 17.0762C27.6817 16.7177 27.6742 16.3555 27.62 15.999C27.5774 15.6744 27.509 15.3538 27.4154 15.0401C27.3352 14.7583 27.2402 14.4809 27.1309 14.209C26.9702 13.8018 26.7666 13.4129 26.5236 13.0487C26.335 12.7994 26.204 12.6652 26.204 12.6652C26.1063 12.539 25.9873 12.4308 25.8524 12.3455C25.4313 12.0563 24.9398 11.8862 24.43 11.8533C24.1909 11.8587 23.956 11.9176 23.7428 12.0259C23.6028 12.0649 23.4677 12.1196 23.34 12.1889C22.7551 12.4734 21.6683 13.2405 20.9939 15.1296C20.2076 17.4469 21.2208 20.1767 22.7327 20.8607Z" fill="#FBFBFB" fill-opacity="0.88"/>
<path d="M22.6337 11.9559C22.8614 11.7787 23.1054 11.6236 23.3625 11.4925C23.3625 11.4637 23.3625 11.4349 23.3625 11.4062C23.3625 11.4349 23.3625 11.4637 23.3625 11.4893C23.6154 11.3569 23.8907 11.2723 24.1744 11.2399C24.9031 11.1856 24.8488 10.8628 24.283 9.82395C24.2001 9.68141 24.1003 9.54941 23.9858 9.43079C23.5382 8.9986 22.9696 8.71315 22.3556 8.61252C22.3501 9.07331 22.4027 9.53295 22.5122 9.98057C22.6273 10.6323 22.668 11.295 22.6337 11.9559Z" fill="#FBFBFB" fill-opacity="0.88"/>
<path d="M15.3235 21.6279C15.5669 21.7891 15.8415 21.8974 16.1295 21.9459C16.4174 21.9943 16.7124 21.9818 16.9952 21.9092L17.4363 21.7366C17.6082 21.668 17.7758 21.589 17.9381 21.5C18.1465 21.3899 18.3492 21.2694 18.5454 21.1388C18.786 20.9825 19.0015 20.7907 19.1847 20.5699C19.3906 20.3215 19.5616 20.0462 19.6929 19.7516C19.7473 19.5918 19.8144 19.432 19.8591 19.2626C19.9039 19.0931 19.9199 18.9046 19.9454 18.7192C19.971 18.5338 19.9295 18.3836 19.9231 18.2109V18.0831L19.9007 17.9361L19.8559 17.6644C19.7313 16.9899 19.5938 16.3155 19.418 15.6922C19.2659 15.1231 19.0736 14.5656 18.8427 14.0237C18.7558 13.8013 18.6488 13.5873 18.523 13.3844C18.4429 13.2217 18.3465 13.0675 18.2354 12.9241L17.9445 12.5533C17.7626 12.3064 17.5077 12.123 17.2157 12.0291C15.755 11.6679 14.4413 11.7447 13.6997 13.7264C12.9581 15.7082 12.581 18.6936 13.8371 20.279C14.2376 20.8233 14.743 21.2819 15.3235 21.6279Z" fill="#FBFBFB" fill-opacity="0.88"/>
<path d="M16.3749 11.1054C16.4005 11.107 16.4261 11.107 16.4517 11.1054C17.0462 11.0798 16.8512 11.5113 17.5704 11.457C18.0403 11.425 17.8069 10.3638 17.5896 9.61908C17.4681 9.21634 17.353 8.90309 17.353 8.90309C17.353 8.90309 17.4841 8.48117 16.5635 9.36337C16.0468 9.82451 15.6618 10.4147 15.448 11.0734C15.7555 11.1101 16.0656 11.1208 16.3749 11.1054Z" fill="#FBFBFB" fill-opacity="0.88"/>
<path d="M11.1618 19.818C11.2234 19.7904 11.2877 19.769 11.3535 19.7541C11.5453 19.7541 11.9289 19.6614 11.9289 19.6614C11.6845 19.3472 11.5259 18.9749 11.4686 18.581C11.4686 18.5107 11.4686 18.4372 11.4686 18.3637C11.4672 17.836 11.4255 17.3092 11.344 16.7878L11.3088 16.8486C10.9015 17.5543 10.6162 18.3237 10.465 19.1244C10.2924 20.1025 10.8357 19.9331 11.1618 19.818Z" fill="#FBFBFB" fill-opacity="0.88"/>
<path d="M28.6909 17.9455C28.7034 17.9655 28.7184 17.9838 28.7356 17.9999C28.8347 18.3387 29.1288 18.262 29.4548 18.1885C29.6163 18.14 29.7851 18.1205 29.9534 18.1309C30.4265 18.1853 30.7877 17.9327 30.6694 17.2136C30.5378 16.7928 30.3064 16.4101 29.995 16.098C29.7788 15.8473 29.5483 15.6093 29.3046 15.3852C29.2073 15.7887 29.141 16.199 29.1064 16.6126C29.0904 16.6321 29.0754 16.6523 29.0616 16.6734C29.0457 16.7181 28.9753 16.7469 28.9466 16.7884C28.8226 16.9102 28.7247 17.0559 28.6589 17.2168C28.6217 17.3079 28.597 17.4035 28.5854 17.5012C28.5799 17.5912 28.5864 17.6815 28.6046 17.7697C28.6241 17.8324 28.6532 17.8917 28.6909 17.9455Z" fill="#FBFBFB" fill-opacity="0.88"/>
<path d="M30.3754 32.1501C30.3435 32.0031 30.2859 31.872 30.2444 31.7346C30.2028 31.5971 30.1517 31.4661 30.1069 31.335C30.0547 31.2009 29.9871 31.0732 29.9056 30.9546C29.7896 30.7169 29.634 30.5007 29.4453 30.3154L29.1991 30.0628C29.1001 29.9765 29.0106 29.9222 28.9211 29.8551C28.616 29.635 28.2881 29.4486 27.943 29.2989L27.048 28.9153C27.0076 28.867 26.9743 28.8132 26.9489 28.7555C26.3166 27.528 25.4614 26.4289 24.4269 25.5144C24.3094 25.4216 24.1792 25.3463 24.0402 25.2906C23.9319 25.1781 23.8177 25.0714 23.6982 24.971C22.9342 24.3669 20.2269 24.0345 20.2269 24.0345C19.6479 24.0674 19.0838 24.2312 18.5773 24.5136C18.0707 24.7959 17.6347 25.1895 17.3022 25.6646C17.1797 25.8314 17.0727 26.009 16.9826 26.1952C16.3017 27.608 16.225 28.113 16.1994 28.4327C16.1816 28.7652 16.0495 29.0814 15.8255 29.3277C15.8116 29.3505 15.7955 29.3719 15.7775 29.3916C15.7551 29.4172 15.7392 29.4459 15.7168 29.4683L15.509 29.7496C14.614 31.0026 13.5912 33.0259 14.0163 34.9277C14.3359 36.2894 15.0264 37.4849 16.062 38.0187C16.6247 38.2975 17.268 38.3677 17.8775 38.2168L18.1269 38.1593C18.2867 38.1177 18.5296 38.073 18.8237 37.9771C19.1177 37.8812 19.4629 37.7597 19.8945 37.6575C20.354 37.549 20.8293 37.5241 21.2977 37.5839C21.5566 37.6351 21.8219 37.667 22.0968 37.7342L22.9502 37.9707C23.516 38.1465 24.1169 38.3798 24.7242 38.6292C25.352 38.9375 26.017 39.1631 26.7028 39.3004C27.4795 39.4187 28.2498 38.9041 28.6845 38.3703C29.1615 37.8243 29.5468 37.2047 29.8256 36.5355C29.9764 36.2164 30.0963 35.8835 30.1836 35.5414L30.3275 35.0396C30.353 34.8702 30.3818 34.7008 30.4074 34.5346C30.433 34.3684 30.4585 34.215 30.4873 34.036C30.5161 33.857 30.4873 33.7163 30.4873 33.5405C30.4873 33.3647 30.4873 33.2209 30.4873 33.0579C30.4873 32.8948 30.4425 32.7382 30.4202 32.5816L30.3754 32.1501Z" fill="#FBFBFB" fill-opacity="0.88"/>
<path d="M32.3379 20.9437C32.2589 20.7213 32.1583 20.5072 32.0375 20.3045C31.9429 20.1451 31.836 19.9933 31.7178 19.8506C31.6458 19.7593 31.5655 19.6748 31.4781 19.5981L31.3918 19.5118C31.0061 19.1224 30.5092 18.8622 29.9694 18.767C29.8489 18.8013 29.7204 18.7934 29.605 18.7446C29.7219 18.7921 29.8514 18.7988 29.9726 18.7638C29.8842 18.7432 29.7945 18.7282 29.7041 18.719C29.6468 18.6923 29.585 18.676 29.5219 18.6711C29.2023 18.6264 28.4415 18.7063 27.5114 19.9497C27.3667 20.0865 27.2301 20.2316 27.1023 20.3844C26.9904 20.5218 26.8529 20.6784 26.7219 20.8574C26.5841 21.0484 26.4683 21.2542 26.3767 21.4711C26.2729 21.6784 26.1822 21.8919 26.105 22.1104C26.0347 22.3214 25.9931 22.5259 25.9452 22.6954C25.8525 23.015 25.7981 23.2675 25.7981 23.2675C25.4785 23.7182 25.4273 24.6579 26.0698 25.7479C26.5397 26.5438 27.7543 27.9854 28.8251 28.6247C29.1365 28.847 29.5187 28.9471 29.8991 28.9059C29.8991 28.9059 30.0717 28.9059 30.369 28.8452C30.5504 28.8218 30.7291 28.7811 30.9028 28.7237C31.0177 28.699 31.1265 28.6511 31.2224 28.5831C31.3452 28.5276 31.4543 28.4457 31.542 28.3434C31.7413 28.1311 31.9053 27.8883 32.0279 27.6242C32.1588 27.3329 32.2657 27.0315 32.3475 26.7228C32.421 26.4032 32.5169 26.0835 32.5681 25.7479C32.6192 25.4123 32.6704 25.0703 32.7055 24.7251C32.8593 23.4529 32.7338 22.1625 32.3379 20.9437Z" fill="#FBFBFB" fill-opacity="0.88"/>
<path d="M14.4671 29.6765C14.6046 29.5774 14.7516 29.4783 14.8891 29.3568C15.018 29.2142 15.1366 29.0625 15.2439 28.903C15.3302 28.7365 15.4081 28.5658 15.4772 28.3915C15.7201 27.7075 16.0909 27.0107 16.4137 26.2755C16.5864 25.9005 16.7028 25.5019 16.7589 25.0929C16.7732 24.9814 16.7732 24.8687 16.7589 24.7572C16.7379 24.6433 16.6944 24.5346 16.6311 24.4376C16.5106 24.2813 16.3815 24.1319 16.2443 23.9901C15.7329 23.4435 15.2566 22.9289 14.8187 22.5294C13.9525 21.7143 13.3548 21.1965 13.3548 21.1965C13.1659 20.9987 12.9508 20.8277 12.7155 20.6882C12.2233 20.5028 11.2324 20.9312 11.2324 20.9312C11.2324 20.9312 10.2415 20.9631 10.1009 23.3732C9.96023 25.7833 10.0369 27.9025 11.437 29.1267C11.632 29.2965 11.8466 29.4424 12.0762 29.5614C12.0762 29.5614 12.2488 29.6541 12.5717 29.7979C12.7801 29.8626 12.9941 29.9076 13.211 29.9322C13.3324 29.9322 13.4667 29.9514 13.6073 29.9322L14.0484 29.8555L14.4671 29.6765Z" fill="#FBFBFB" fill-opacity="0.88"/>
</g>
<defs>
<clipPath id="clip0_1458_3795">
<rect width="211" height="46.1162" fill="white" transform="translate(0 0.720184)"/>
</clipPath>
</defs>
</svg>
